<?xml version="1.0" encoding="UTF-8" standalone="no"?><!DOCTYPE svg PUBLIC "-//W3C//DTD SVG 1.1//EN" "http://www.w3.org/Graphics/SVG/1.1/DTD/svg11.dtd"><svg width="100%" height="100%" viewBox="0 0 512 512" version="1.1" xmlns="http://www.w3.org/2000/svg" xmlns:xlink="http://www.w3.org/1999/xlink" xml:space="preserve" xmlns:serif="http://www.serif.com/" style="fill-rule:evenodd;clip-rule:evenodd;stroke-linejoin:round;stroke-miterlimit:2;"><rect x="0" y="0" width="512" height="512" style="fill:#006045;"/><g><path d="M392.739,243.397c0,20.718 -4.719,36.487 -14.157,47.307c-14.732,17.265 -36.487,33.954 -65.262,50.068c-36.372,20.258 -70.441,30.386 -102.21,30.386c-42.126,0 -71.131,-20.602 -87.016,-61.808c-3.221,-8.288 -4.833,-18.532 -4.833,-30.733c0,-8.517 0.69,-17.034 2.071,-25.552c1.841,-12.661 4.604,-23.596 8.287,-32.803c1.381,-2.994 2.533,-4.489 3.453,-4.489c0.921,0 1.151,1.841 0.691,5.524c-1.381,5.986 -2.763,11.74 -4.144,17.265c-2.301,10.59 -3.453,18.3 -3.453,23.136c0,17.034 5.756,32.803 17.265,47.305c15.654,19.107 38.098,28.661 67.333,28.661c26.014,0 53.407,-6.101 82.182,-18.302c23.481,-9.898 44.659,-22.099 63.537,-36.602c16.804,-12.891 25.206,-22.099 25.206,-27.625c0,-0.92 -3.568,-8.287 -10.705,-22.099c-8.287,-15.884 -14.501,-31.538 -18.645,-46.96c-1.381,-5.064 -3.338,-8.633 -5.871,-10.705c-1.841,-1.611 -2.763,-3.453 -2.763,-5.524c0,-1.843 1.611,-10.245 4.834,-25.207c0.461,-2.533 1.151,-3.799 2.071,-3.799c0.691,0 1.728,0.691 3.109,2.073c4.373,4.604 13.581,13.926 27.623,27.969c2.301,2.073 3.453,3.914 3.453,5.526c0,1.381 -1.266,2.071 -3.798,2.071c-2.993,0 -7.367,-0.921 -13.121,-2.763c0.46,1.841 5.179,11.741 14.156,29.696c7.137,14.502 10.705,27.164 10.705,37.983Z" style="fill:#fe9a00;fill-rule:nonzero;"/><path d="M230.101,237.182c-0.46,-0.46 -0.46,-1.15 0,-2.071l11.051,-22.099c0.69,-1.381 1.38,-2.071 2.071,-2.071c1.151,0 5.984,2.935 14.502,8.804c8.517,5.87 12.776,9.381 12.776,10.533c0,3.683 -3.798,11.51 -11.395,23.481c-0.921,1.61 -1.841,2.071 -2.763,1.38c-8.287,-6.444 -17.035,-12.431 -26.244,-17.955Z" style="fill:#fe9a00;fill-rule:nonzero;"/></g></svg>